{"title":"The Pretty Reckless - Heaven Knows [Music Video] 720p [Sbyky]","uid":9671230,"size":32195507,"categoryP":"video","categoryS":"music_videos","magnet":"?xt=urn:btih:214abc208c6083f581422248f867856b2f2ce122&amp;dn=The+Pretty+Reckless+-+Heaven+Knows+%5BMusic+Video%5D+720p+%5BSbyky%5D&amp;tr=udp%3A%2F%2Ftracker.openbittorrent.com%3A80&amp;tr=udp%3A%2F%2Fopen.demonii.com%3A1337&amp;tr=udp%3A%2F%2Ftracker.coppersurfer.tk%3A6969&amp;tr=udp%3A%2F%2Fexodus.desync.com%3A6969","seeders":1,"leechers":1,"uploader":"Sbyky","files":1,"time":1393466170,"description":"\n\nGeneral\nComplete name                            : The Pretty Reckless - Heaven Knows [Music Video] 720p [Sbyky].MP4\nFormat                                   : MPEG-4\nFormat profile                           : Base Media\nCodec ID                                 : isom\nFile size                                : 30.7 MiB\nDuration                                 : 3mn 45s\nOverall bit rate mode                    : Variable\nOverall bit rate                         : 1 145 Kbps\nEncoded date                             : UTC 2014-02-14 10:01:25\nTagged date                              : UTC 2014-02-14 10:01:25\n\nVideo\nID                                       : 1\nFormat                                   : AVC\nFormat/Info                              : Advanced Video Codec\nFormat profile                           : &lt;a class=&quot;__cf_email__&quot; href=&quot;/cdn-cgi/l/email-protection&quot; data-cfemail=&quot;672a060e09272b544956&quot;&gt;[email&amp;#160;protected]&lt;/a&gt;&lt;script cf-hash='f9e31' type=&quot;text/javascript&quot;&gt;\n/* &lt;![CDATA[ */!function(){try{var t=&quot;currentScript&quot;in document?document.currentScript:function(){for(var t=document.getElementsByTagName(&quot;script&quot;),e=t.length;e--;)if(t[e].getAttribute(&quot;cf-hash&quot;))return t[e]}();if(t&amp;&amp;t.previousSibling){var e,r,n,i,c=t.previousSibling,a=c.getAttribute(&quot;data-cfemail&quot;);if(a){for(e=&quot;&quot;,r=parseInt(a.substr(0,2),16),n=2;a.length-n;n+=2)i=parseInt(a.substr(n,2),16)^r,e+=String.fromCharCode(i);e=document.createTextNode(e),c.parentNode.replaceChild(e,c)}}}catch(u){}}();/* ]]&gt; */&lt;/script&gt;\nFormat settings, CABAC                   : Yes\nFormat settings, ReFrames                : 3 frames\nCodec ID                                 : avc1\nCodec ID/Info                            : Advanced Video Coding\nDuration                                 : 3mn 44s\nDuration_LastFrame                       : -41ms\nBit rate                                 : 1 016 Kbps\nWidth                                    : 1 280 pixels\nHeight                                   : 720 pixels\nDisplay aspect ratio                     : 16:9\nFrame rate mode                          : Constant\nFrame rate                               : 23.976 fps\nColor space                              : YUV\nChroma subsampling                       : 4:2:0\nBit depth                                : 8 bits\nScan type                                : Progressive\nBits/(Pixel*Frame)                       : 0.046\nStream size                              : 27.2 MiB (89%)\nEncoded date                             : UTC 2014-02-14 10:01:25\nTagged date                              : UTC 2014-02-14 10:01:25\n\nAudio\nID                                       : 2\nFormat                                   : AAC\nFormat/Info                              : Advanced Audio Codec\nFormat profile                           : LC\nCodec ID                                 : 40\nDuration                                 : 3mn 45s\nBit rate mode                            : Variable\nBit rate                                 : 126 Kbps\nChannel(s)                               : 2 channels\nChannel positions                        : Front: L R\nSampling rate                            : 44.1 KHz\nCompression mode                         : Lossy\nStream size                              : 3.37 MiB (11%)\nEncoded date                             : UTC 2014-02-14 10:01:42\nTagged date                              : UTC 2014-02-14 10:01:42\n\nShared By Sbyky\n","torrent":{"xt":"urn:btih:214abc208c6083f581422248f867856b2f2ce122","amp;dn":"The+Pretty+Reckless+-+Heaven+Knows+%5BMusic+Video%5D+720p+%5BSbyky%5D","amp;tr":["udp%3A%2F%2Ftracker.openbittorrent.com%3A80","udp%3A%2F%2Fopen.demonii.com%3A1337","udp%3A%2F%2Ftracker.coppersurfer.tk%3A6969","udp%3A%2F%2Fexodus.desync.com%3A6969"],"infoHash":"214abc208c6083f581422248f867856b2f2ce122","infoHashBuffer":{"type":"Buffer","data":[33,74,188,32,140,96,131,245,129,66,34,72,248,103,133,107,47,44,225,34]},"announce":[],"urlList":[]}}